<?xml version="1.0" standalone="no"?>
<!DOCTYPE svg PUBLIC "-//W3C//DTD SVG 20010904//EN"
 "http://www.w3.org/TR/2001/REC-SVG-20010904/DTD/svg10.dtd">
<svg version="1.0" xmlns="http://www.w3.org/2000/svg"
 width="512.000000pt" height="512.000000pt" viewBox="0 0 512.000000 512.000000"
 preserveAspectRatio="xMidYMid meet">
<metadata>
Created by potrace 1.11, written by Peter Selinger 2001-2013
</metadata>
<g transform="translate(0.000000,512.000000) scale(0.100000,-0.100000)"
fill="#000000" stroke="none">
<path d="M911 3808 c-18 -5 -68 -50 -142 -130 -63 -67 -129 -137 -147 -156
-18 -20 -48 -53 -66 -74 -41 -46 -227 -247 -315 -339 -177 -187 -244 -351
-236 -579 4 -114 17 -171 61 -271 39 -88 90 -156 224 -299 62 -67 121 -130
130 -140 14 -16 168 -182 260 -281 14 -15 57 -62 95 -105 90 -99 93 -102 117
-115 15 -8 593 -11 2083 -11 1868 -1 2064 1 2092 15 30 16 53 59 53 100 0 10
-42 76 -93 146 -51 69 -104 142 -117 161 -13 19 -27 37 -30 40 -3 3 -14 18
-25 34 -28 40 -37 52 -255 351 -234 319 -290 398 -290 406 0 9 113 163 122
167 4 2 8 8 8 13 0 5 7 17 15 26 12 16 47 63 141 193 14 19 116 159 226 310
110 151 219 302 243 335 24 34 46 74 48 90 5 37 -15 79 -49 102 -24 15 -174
16 -2075 17 -1127 1 -2062 -2 -2078 -6z m364 -744 c94 -24 164 -64 235 -134
212 -210 213 -529 3 -737 -112 -111 -239 -160 -393 -150 -154 9 -275 70 -377
190 -12 14 -19 28 -16 31 4 3 2 6 -4 6 -17 0 -47 58 -72 139 -46 147 -25 300
58 428 126 193 351 284 566 227z m2030 -115 c38 -37 43 -91 14 -133 -13 -19
-33 -37 -44 -40 -11 -3 -264 -6 -562 -6 -389 0 -549 3 -567 12 -55 24 -73 104
-35 152 12 15 31 31 43 36 11 4 270 7 573 6 l553 -1 25 -26z m-16 -614 c55
-28 66 -108 22 -157 l-29 -33 -567 0 -567 0 -29 33 c-46 52 -33 139 25 162 12
5 268 9 569 9 463 1 552 -1 576 -14z"/>
<path d="M1088 2865 c-188 -37 -297 -230 -232 -412 12 -34 19 -64 16 -68 -4
-4 -2 -5 4 -3 5 1 25 -14 43 -34 49 -56 147 -100 222 -99 131 0 234 64 292
181 30 62 31 194 0 260 -37 82 -135 160 -220 176 -54 11 -68 11 -125 -1z"/>
</g>
</svg>
